<svg id="Слой_1" data-name="Слой 1" xmlns="http://www.w3.org/2000/svg" viewBox="0 0 80.67 82.33">
  <defs>
    <style>
      .cls-1 {
        fill: none;
        stroke-width: 3px;
      }

      .cls-1, .cls-2 {
        stroke: #f7a511;
        stroke-linecap: round;
        stroke-linejoin: round;
      }

      .cls-2, .cls-3 {
        fill: #f7a511;
      }

      .cls-2 {
        stroke-width: 2px;
      }
    </style>
  </defs>
  <title>economia</title>
  <path class="cls-1" d="M424.17,320H418s-2.42.15-2.65,6.95a4.3,4.3,0,0,1-.59,2h0a4.24,4.24,0,0,1-1.56,1.56c-3.17,1.85-13,8.34-13,17.29v28.76a7.71,7.71,0,0,0,.62,3.11c1,2.34,3.37,6.3,7.71,6.3h20" transform="translate(-398.67 -305.17)"/>
  <line class="cls-1" x1="16.68" y1="21.78" x2="20.17" y2="21.78"/>
  <path class="cls-1" d="M408.83,316.33s1.08,7.63,6.71,8.32" transform="translate(-398.67 -305.17)"/>
  <path class="cls-1" d="M418,320l-5.81-9.17,6.64-4.16,5.84,4.16,6.5-4.16,6.83,4.5L431.71,320s4.46,2.17,3.12,9.67c0,0,18.17,7.16,15.17,27.33" transform="translate(-398.67 -305.17)"/>
  <line class="cls-1" x1="25.17" y1="21.78" x2="36.17" y2="21.78"/>
  <path class="cls-1" d="M441.17,316.33s-.17,8.79-6.34,8.56" transform="translate(-398.67 -305.17)"/>
  <line class="cls-1" x1="29.83" y1="14.83" x2="33.05" y2="14.83"/>
  <path class="cls-1" d="M436.79,365.62a16.32,16.32,0,1,1,4.38-11.12,15.72,15.72,0,0,1-.3,3.09" transform="translate(-398.67 -305.17)"/>
  <line class="cls-1" x1="26.17" y1="37.83" x2="26.17" y2="42.25"/>
  <line class="cls-1" x1="26.17" y1="55.17" x2="26.17" y2="58.92"/>
  <path class="cls-2" d="M419.67,358.37l1.35-1.54a5.48,5.48,0,0,0,3.63,1.55c1.59,0,2.48-.72,2.48-1.81s-.9-1.51-2.16-2l-1.9-.8a3.83,3.83,0,0,1-2.79-3.52c0-2.11,1.92-3.73,4.57-3.73a6.09,6.09,0,0,1,4.22,1.7l-1.2,1.43a4.47,4.47,0,0,0-3-1.17c-1.34,0-2.23.62-2.23,1.64s1.08,1.49,2.21,1.94l1.88.77c1.63.66,2.79,1.65,2.79,3.6,0,2.15-1.84,3.93-4.9,3.93A7.1,7.1,0,0,1,419.67,358.37Z" transform="translate(-398.67 -305.17)"/>
  <circle class="cls-3" cx="16.87" cy="48.75" r="1.55"/>
  <circle class="cls-3" cx="36.17" cy="48.75" r="1.55"/>
  <g>
    <path class="cls-1" d="M457.33,362.87v18.8s-9.75,9.58-19.33,0V362.59a3.92,3.92,0,0,1,2.28-3.58c2.73-1.23,7.8-2.52,14.53.16A4,4,0,0,1,457.33,362.87Z" transform="translate(-398.67 -305.17)"/>
    <path class="cls-1" d="M438,362.21s9.56,9.77,19.33,0" transform="translate(-398.67 -305.17)"/>
    <path class="cls-1" d="M438,368.66s9.56,9.77,19.33,0" transform="translate(-398.67 -305.17)"/>
    <path class="cls-1" d="M438,375.54s9.56,9.77,19.33,0" transform="translate(-398.67 -305.17)"/>
  </g>
  <g>
    <path class="cls-1" d="M477.83,350.07v18.68s-10.08,9.58-20,0V349.8a4,4,0,0,1,2.41-3.73c2.83-1.23,8.05-2.48,14.94.17A4.11,4.11,0,0,1,477.83,350.07Z" transform="translate(-398.67 -305.17)"/>
    <path class="cls-1" d="M457.83,349.29s9.9,9.77,20,0" transform="translate(-398.67 -305.17)"/>
    <path class="cls-1" d="M457.83,355.74s9.9,9.77,20,0" transform="translate(-398.67 -305.17)"/>
    <path class="cls-1" d="M457.83,362.62s9.9,9.77,20,0" transform="translate(-398.67 -305.17)"/>
  </g>
  <path class="cls-1" d="M457.83,368.75v13.17s10,7.08,20,0V368.75" transform="translate(-398.67 -305.17)"/>
  <path class="cls-1" d="M477.83,376.67s-7.66,5.16-20,0" transform="translate(-398.67 -305.17)"/>
  <line class="cls-1" x1="34.61" y1="80.83" x2="49" y2="80.83"/>
</svg>
