<svg id="Слой_1" data-name="Слой 1" xmlns="http://www.w3.org/2000/svg" viewBox="0 0 745.67 245">
  <defs>
    <style>
      .cls-1 {
        fill: #f7a511;
      }
    </style>
  </defs>
  <title>fon1</title>
  <g>
    <polygon class="cls-1" points="10.83 26.33 5.17 26.33 5.17 31.5 0 31.5 0 37.17 5.17 37.17 5.17 42.33 10.83 42.33 10.83 37.17 16 37.17 16 31.5 10.83 31.5 10.83 26.33"/>
    <polygon class="cls-1" points="206.17 0 200.5 0 200.5 5.17 195.33 5.17 195.33 10.83 200.5 10.83 200.5 16 206.17 16 206.17 10.83 211.33 10.83 211.33 5.17 206.17 5.17 206.17 0"/>
    <polygon class="cls-1" points="355.5 69.67 349.83 69.67 349.83 74.83 344.67 74.83 344.67 80.5 349.83 80.5 349.83 85.67 355.5 85.67 355.5 80.5 360.67 80.5 360.67 74.83 355.5 74.83 355.5 69.67"/>
    <polygon class="cls-1" points="413.17 229 407.5 229 407.5 234.17 402.33 234.17 402.33 239.83 407.5 239.83 407.5 245 413.17 245 413.17 239.83 418.33 239.83 418.33 234.17 413.17 234.17 413.17 229"/>
    <polygon class="cls-1" points="740.5 27 740.5 21.83 734.83 21.83 734.83 27 729.67 27 729.67 32.67 734.83 32.67 734.83 37.83 740.5 37.83 740.5 32.67 745.67 32.67 745.67 27 740.5 27"/>
  </g>
</svg>
