<svg id="Слой_1" data-name="Слой 1" xmlns="http://www.w3.org/2000/svg" viewBox="0 0 269.11 516.02">
  <defs>
    <style>
      .cls-1 {
        fill: #f7a511;
      }
    </style>
  </defs>
  <title>fon2</title>
  <g>
    <polygon class="cls-1" points="48.13 15.98 53.79 16.26 54.04 11.1 59.2 11.35 59.48 5.69 54.32 5.44 54.57 0.28 48.91 0 48.66 5.16 43.5 4.91 43.22 10.57 48.38 10.82 48.13 15.98"/>
    <polygon class="cls-1" points="11.84 197.94 6.2 197.39 5.69 202.53 0.55 202.03 0 207.67 5.14 208.17 4.64 213.31 10.28 213.87 10.78 208.72 15.92 209.23 16.48 203.59 11.33 203.09 11.84 197.94"/>
    <polygon class="cls-1" points="95.96 368.36 90.41 367.22 89.37 372.28 84.31 371.24 83.16 376.79 88.22 377.83 87.18 382.89 92.73 384.04 93.78 378.98 98.83 380.02 99.98 374.47 94.92 373.43 95.96 368.36"/>
    <polygon class="cls-1" points="60.29 500.35 54.74 499.21 53.7 504.27 48.64 503.23 47.5 508.78 52.56 509.82 51.52 514.88 57.07 516.02 58.11 510.96 63.17 512 64.31 506.45 59.25 505.41 60.29 500.35"/>
    <polygon class="cls-1" points="264.05 471.41 265.09 466.35 259.54 465.21 258.5 470.27 253.44 469.23 252.29 474.78 257.36 475.82 256.31 480.88 261.86 482.02 262.91 476.96 267.97 478 269.11 472.45 264.05 471.41"/>
  </g>
</svg>
