<svg id="Слой_1" data-name="Слой 1" xmlns="http://www.w3.org/2000/svg" viewBox="0 0 381.88 114.46">
  <defs>
    <style>
      .cls-1 {
        fill: #f7a511;
      }
    </style>
  </defs>
  <title>fon3</title>
  <g>
    <polygon class="cls-1" points="376.73 67.58 377.17 62.43 371.52 61.95 371.08 67.09 365.94 66.65 365.45 72.3 370.6 72.74 370.16 77.89 375.81 78.37 376.25 73.22 381.39 73.66 381.88 68.02 376.73 67.58"/>
    <polygon class="cls-1" points="210.5 82.09 204.86 81.61 204.42 86.76 199.27 86.32 198.79 91.97 203.94 92.41 203.5 97.55 209.14 98.04 209.58 92.89 214.73 93.33 215.21 87.68 210.06 87.24 210.5 82.09"/>
    <polygon class="cls-1" points="71.17 98.52 65.52 98.04 65.08 103.18 59.94 102.74 59.45 108.39 64.6 108.83 64.16 113.98 69.81 114.46 70.25 109.31 75.39 109.75 75.88 104.11 70.73 103.67 71.17 98.52"/>
    <polygon class="cls-1" points="11.72 0.48 6.07 0 5.63 5.15 0.48 4.71 0 10.35 5.15 10.79 4.71 15.94 10.35 16.43 10.79 11.28 15.94 11.72 16.42 6.07 11.28 5.63 11.72 0.48"/>
  </g>
</svg>
