<svg id="Слой_1" data-name="Слой 1" xmlns="http://www.w3.org/2000/svg" viewBox="0 0 546.72 233.72">
  <defs>
    <style>
      .cls-1 {
        fill: #f7a511;
      }
    </style>
  </defs>
  <title>fon4</title>
  <g>
    <polygon class="cls-1" points="14.7 2.71 9.72 0 7.25 4.54 2.71 2.06 0 7.04 4.54 9.51 2.06 14.05 7.04 16.76 9.51 12.22 14.05 14.7 16.76 9.72 12.22 7.25 14.7 2.71"/>
    <polygon class="cls-1" points="216.03 52.71 211.06 50 208.58 54.54 204.05 52.06 201.33 57.04 205.87 59.51 203.4 64.05 208.37 66.76 210.84 62.22 215.38 64.7 218.09 59.72 213.56 57.25 216.03 52.71"/>
    <polygon class="cls-1" points="355.7 9.05 350.72 6.33 348.25 10.87 343.71 8.4 341 13.37 345.54 15.84 343.06 20.38 348.04 23.09 350.51 18.56 355.05 21.03 357.76 16.06 353.22 13.58 355.7 9.05"/>
    <polygon class="cls-1" points="478.03 65.38 473.06 62.67 470.58 67.2 466.05 64.73 463.33 69.7 467.87 72.18 465.4 76.71 470.37 79.43 472.84 74.89 477.38 77.36 480.09 72.39 475.56 69.92 478.03 65.38"/>
    <polygon class="cls-1" points="542.47 224.8 545.4 220.55 540.74 217.33 537.8 221.58 533.55 218.65 530.33 223.31 534.58 226.25 531.65 230.5 536.31 233.72 539.25 229.47 543.5 232.4 546.72 227.74 542.47 224.8"/>
  </g>
</svg>
