<svg id="Слой_1" data-name="Слой 1" xmlns="http://www.w3.org/2000/svg" viewBox="0 0 862 353">
  <defs>
    <style>
      .cls-1 {
        fill: #f7a511;
      }
    </style>
  </defs>
  <title>fon5</title>
  <g>
    <polygon class="cls-1" points="24.81 22 20.03 23.95 18.08 19.16 12.83 21.31 14.78 26.09 10 28.04 12.14 33.29 16.92 31.34 18.88 36.12 24.12 33.98 22.17 29.2 26.95 27.24 24.81 22"/>
    <polygon class="cls-1" points="14.81 291.33 10.03 293.28 8.08 288.5 2.83 290.64 4.78 295.42 0 297.38 2.14 302.62 6.92 300.67 8.88 305.45 14.12 303.31 12.17 298.53 16.95 296.58 14.81 291.33"/>
    <polygon class="cls-1" points="367.15 282.85 362.36 284.8 360.41 280.02 355.17 282.16 357.12 286.94 352.33 288.9 354.47 294.14 359.26 292.19 361.21 296.98 366.46 294.83 364.5 290.05 369.29 288.1 367.15 282.85"/>
    <polygon class="cls-1" points="676.48 338.88 671.7 340.83 669.75 336.05 664.5 338.19 666.45 342.97 661.67 344.92 663.81 350.17 668.59 348.22 670.54 353 675.79 350.86 673.84 346.07 678.62 344.12 676.48 338.88"/>
    <polygon class="cls-1" points="551.03 2.83 546.25 4.78 544.29 0 539.05 2.14 541 6.92 536.22 8.88 538.36 14.12 543.14 12.17 545.09 16.95 550.34 14.81 548.39 10.03 553.17 8.08 551.03 2.83"/>
    <polygon class="cls-1" points="862 46.08 859.86 40.83 855.08 42.78 853.12 38 847.88 40.14 849.83 44.92 845.04 46.88 847.19 52.12 851.97 50.17 853.92 54.95 859.17 52.81 857.22 48.03 862 46.08"/>
  </g>
</svg>
