<svg id="Слой_1" data-name="Слой 1" xmlns="http://www.w3.org/2000/svg" viewBox="0 0 905.46 107">
  <defs>
    <style>
      .cls-1 {
        fill: #f7a511;
      }
    </style>
  </defs>
  <title>fon6</title>
  <g>
    <polygon class="cls-1" points="249.81 74.5 245.03 76.45 243.08 71.67 237.83 73.81 239.78 78.59 235 80.54 237.14 85.79 241.92 83.84 243.88 88.62 249.12 86.48 247.17 81.69 251.95 79.74 249.81 74.5"/>
    <polygon class="cls-1" points="14.81 2.83 10.03 4.78 8.08 0 2.83 2.14 4.78 6.92 0 8.88 2.14 14.12 6.92 12.17 8.88 16.95 14.12 14.81 12.17 10.03 16.95 8.08 14.81 2.83"/>
    <polygon class="cls-1" points="601.81 66.02 597.03 67.97 595.08 63.19 589.83 65.33 591.78 70.11 587 72.06 589.14 77.31 593.92 75.36 595.88 80.14 601.12 78 599.17 73.22 603.96 71.27 601.81 66.02"/>
    <polygon class="cls-1" points="905.46 98.12 903.31 92.88 898.53 94.83 896.58 90.05 891.33 92.19 893.28 96.97 888.5 98.92 890.64 104.17 895.42 102.22 897.38 107 902.62 104.86 900.67 100.08 905.46 98.12"/>
  </g>
</svg>
