<svg id="Слой_1" data-name="Слой 1" xmlns="http://www.w3.org/2000/svg" viewBox="0 0 85.51 80.07">
  <defs>
    <style>
      .cls-1 {
        fill: none;
        stroke: #f7a511;
        stroke-linecap: round;
        stroke-linejoin: round;
        stroke-width: 3px;
      }
    </style>
  </defs>
  <title>garantia</title>
  <g>
    <path class="cls-1" d="M465.58,450H437.75A12.25,12.25,0,0,1,429,462.75s1,23.5,22.67,33.88c21.71-10.38,22.66-33.88,22.66-33.88A12.26,12.26,0,0,1,465.58,450Z" transform="translate(-408.5 -448.5)"/>
    <g>
      <path class="cls-1" d="M451.67,455.08H441.42c-.25,6.34-7.59,9.92-7.59,9.92l1.42,4.75" transform="translate(-408.5 -448.5)"/>
      <path class="cls-1" d="M468.08,469.75,469.5,465s-7.33-3.58-7.58-9.92H451.67" transform="translate(-408.5 -448.5)"/>
    </g>
    <path class="cls-1" d="M436.58,474.67s7.5,13.91,15.09,16.58c0,0,10.91-4.83,14.66-16.58" transform="translate(-408.5 -448.5)"/>
    <polyline class="cls-1" points="36.75 23.63 42.25 29.25 50.88 16.75"/>
    <path class="cls-1" d="M424.13,500.38v-6.63a4.25,4.25,0,0,0-4.25-4.25h-5.63a4.25,4.25,0,0,0-4.25,4.25V521.5a4.25,4.25,0,0,0,4.25,4.25h5.63a4.25,4.25,0,0,0,4.25-4.25V505.63" transform="translate(-408.5 -448.5)"/>
    <circle class="cls-1" cx="8.56" cy="69" r="2.81"/>
    <path class="cls-1" d="M424.13,521.5l12.9,4.67a15.32,15.32,0,0,0,6.88.81l24.2-2.73a13.65,13.65,0,0,0,7.65-3.48l15.33-14a4.33,4.33,0,0,0-.55-6.85l-.06,0a4.25,4.25,0,0,0-4.64.23l-12.06,8.51a13.62,13.62,0,0,1-7.84,2.49H442.3a6.82,6.82,0,0,1-4.47-1.68l-1.25-1.07" transform="translate(-408.5 -448.5)"/>
    <path class="cls-1" d="M465.38,511.13s.79-7.88-6-7.88c-.66,0-10.27-.56-15.07-.84a11.82,11.82,0,0,1-5-1.47l-6.37-3.57a11.64,11.64,0,0,0-5.71-1.49h-3.07" transform="translate(-408.5 -448.5)"/>
  </g>
</svg>
