<svg id="Слой_1" data-name="Слой 1" xmlns="http://www.w3.org/2000/svg" viewBox="0 0 56.87 77.67">
  <defs>
    <style>
      .cls-1, .cls-2, .cls-3, .cls-4 {
        fill: none;
        stroke: #f7a511;
        stroke-linecap: round;
        stroke-linejoin: round;
      }

      .cls-1 {
        stroke-width: 3px;
      }

      .cls-2, .cls-3, .cls-4 {
        stroke-width: 2px;
      }

      .cls-3 {
        stroke-dasharray: 1.03 3.08;
      }

      .cls-4 {
        stroke-dasharray: 1 3;
      }
    </style>
  </defs>
  <title>individualnost</title>
  <g>
    <path class="cls-1" d="M343.1,377.17v-64.5s-23.88-.4-27,22.65a34.88,34.88,0,0,0,1.79,16.13c2.11,6.06,6.12,14.9,12.76,20.22v5.5" transform="translate(-314.34 -311.17)"/>
    <polyline class="cls-1" points="28.77 12.83 23.41 17.08 20.79 14.08 17.16 17.08 19.04 19.71 17.16 21.46 13.41 19.58 10.79 24.58 13.66 25.71 13.54 28.96 10.04 28.96 10.04 34.33 13.66 34.33 13.66 36.96 11.37 39.25 14.54 42.96 16.29 40.96 18.66 42.96 16.91 46.71 21.16 48.33 23.29 45.46 28.84 51.01"/>
    <path class="cls-1" d="M343.18,352.45a10.58,10.58,0,1,1,0-21.15" transform="translate(-314.34 -311.17)"/>
    <rect class="cls-1" x="28.84" y="23.46" width="10.95" height="15.71"/>
    <line class="cls-1" x1="35.91" y1="23.46" x2="35.91" y2="15.58"/>
    <polyline class="cls-1" points="39.79 27.33 46.41 27.33 46.41 21.71"/>
    <line class="cls-1" x1="39.79" y1="35.33" x2="49.41" y2="35.33"/>
    <polyline class="cls-1" points="33.16 39.71 33.16 44.33 38.66 44.33 38.66 47.96"/>
    <circle class="cls-1" cx="35.91" cy="11.58" r="2.75"/>
    <circle class="cls-1" cx="46.41" cy="18.33" r="2.75"/>
    <circle class="cls-1" cx="52.62" cy="35.33" r="2.75"/>
    <circle class="cls-1" cx="38.66" cy="51.25" r="2.75"/>
    <g>
      <path class="cls-2" d="M345.38,312.67l.49.05" transform="translate(-314.34 -311.17)"/>
      <path class="cls-3" d="M348.9,313.29c6.66,1.6,20.51,7.1,20.83,25.16" transform="translate(-314.34 -311.17)"/>
      <path class="cls-2" d="M369.72,340c0,.16,0,.33,0,.5" transform="translate(-314.34 -311.17)"/>
    </g>
    <rect class="cls-1" x="14.29" y="66" width="27.13" height="5.08" rx="2.54"/>
    <rect class="cls-1" x="14.29" y="71.08" width="27.13" height="5.08" rx="2.54"/>
    <path class="cls-4" d="M354.13,375.13v-2.5s10.53-10.36,12.83-20.18" transform="translate(-314.34 -311.17)"/>
  </g>
</svg>
