<svg width="31" height="31" viewBox="0 0 31 31" fill="none" xmlns="http://www.w3.org/2000/svg">
<path d="M25.3161 0H5.6832C2.54951 0 0 2.54951 0 5.6832V25.3161C0 28.4498 2.54951 31 5.6832 31H25.3161C28.4498 31 31 28.4505 31 25.3161V5.6832C31 2.54951 28.4505 0 25.3161 0ZM15.4996 25.705C9.87294 25.705 5.29497 21.1271 5.29497 15.4996C5.29497 9.87294 9.87294 5.29497 15.4996 5.29497C21.1271 5.29497 25.705 9.87294 25.705 15.4996C25.705 21.1263 21.1263 25.705 15.4996 25.705ZM26.0331 7.40489C24.7011 7.40489 23.6179 6.32168 23.6179 4.99041C23.6179 3.65915 24.7011 2.57593 26.0331 2.57593C27.3643 2.57593 28.4476 3.65915 28.4476 4.99041C28.4476 6.32168 27.3643 7.40489 26.0331 7.40489Z" fill="#6A453B"/>
<path d="M15.5003 10C12.4686 10 10 12.4673 10 15.499C10 18.532 12.4686 21 15.5003 21C18.5334 21 21 18.532 21 15.499C21 12.468 18.5327 10 15.5003 10Z" fill="#6A453B"/>
</svg>
