<svg id="Слой_1" data-name="Слой 1" xmlns="http://www.w3.org/2000/svg" viewBox="0 0 80.38 79.75">
  <defs>
    <style>
      .cls-1 {
        fill: none;
        stroke: #f7a511;
        stroke-linecap: round;
        stroke-linejoin: round;
        stroke-width: 3px;
      }

      .cls-2 {
        fill: #f7a511;
      }
    </style>
  </defs>
  <title>kachestvo</title>
  <g>
    <path class="cls-1" d="M428.25,252.5V266a3,3,0,0,1-3,3H420a3,3,0,0,1-3-3V247.75a3,3,0,0,1,3-3h5.25a3,3,0,0,1,3,3V248" transform="translate(-395.83 -213)"/>
    <circle class="cls-2" cx="26.79" cy="50.38" r="1.38"/>
    <path class="cls-1" d="M428.25,267.13h21.31a2.57,2.57,0,0,0,2.57-2.57h0a2.57,2.57,0,0,0-2.57-2.56h-.81" transform="translate(-395.83 -213)"/>
    <path class="cls-1" d="M450.52,262.19h0a1.61,1.61,0,0,0,1.61-1.61v-3a1.61,1.61,0,0,0-1.61-1.61h-2" transform="translate(-395.83 -213)"/>
    <path class="cls-1" d="M450.52,256h0a1.53,1.53,0,0,0,1.61-1.43v-2.64a1.53,1.53,0,0,0-1.61-1.43h-2" transform="translate(-395.83 -213)"/>
    <path class="cls-1" d="M427.45,245.72l11.47-8.17a2.25,2.25,0,0,0,1-1.84h0a2.26,2.26,0,0,1,2.26-2.27h2.15a2.26,2.26,0,0,1,2.27,2.27v1.4a2.28,2.28,0,0,1-.53,1.46l-5.19,6.18h10.27c1.58,0,2.86.67,2.86,1.49V249c0,.82-1.28,1.49-2.86,1.49h0" transform="translate(-395.83 -213)"/>
    <path class="cls-1" d="M459.16,233.43a30,30,0,0,1-46,38.48" transform="translate(-395.83 -213)"/>
    <path class="cls-1" d="M411,269a30,30,0,0,1,44.1-39.63" transform="translate(-395.83 -213)"/>
    <g>
      <polyline class="cls-1" points="40.19 4.5 34.73 1.5 30 5 22.67 5 19.17 11.33 11.67 12.17 11.67 18.5 6 22 6 28.97 1.5 34.17 5 39.5"/>
      <polyline class="cls-1" points="75.38 39.5 78.88 34.17 74.38 28.97 74.38 22 68.71 18.5 68.71 12.17 61.21 11.33 57.71 5 50.38 5 45.64 1.5 40.19 4.5"/>
      <polyline class="cls-1" points="40.19 75.25 45.64 78.25 50.38 74.75 57.71 74.75 61.21 68.42 68.71 67.58 68.71 61.25 74.38 57.75 74.38 50.78 78.88 45.58 75.38 40.25"/>
      <polyline class="cls-1" points="5 40.25 1.5 45.58 6 50.78 6 57.75 11.67 61.25 11.67 67.58 19.17 68.42 22.67 74.75 30 74.75 34.73 78.25 40.19 75.25"/>
    </g>
  </g>
</svg>
