<svg width="189" height="41" viewBox="0 0 189 41" xmlns="http://www.w3.org/2000/svg">
<path d="M0.82348 7.825C0.82348 13.032 4.69798 15.3075 8.77748 15.3075C10.397 15.3075 12.0575 14.959 13.5335 14.344V7.1075H9.94598V11.9455C9.69998 12.007 9.37198 12.048 8.96198 12.048C7.32198 12.048 4.71848 11.3715 4.71848 7.825C4.71848 4.873 6.91198 3.684 9.22848 3.684C10.6635 3.684 12.119 4.094 13.185 4.832V1.2445C11.832 0.670499 10.274 0.342499 8.73648 0.342499C4.73898 0.342499 0.82348 2.4745 0.82348 7.825ZM15.137 7.825C15.137 11.8225 17.6995 15.3075 22.8245 15.3075C27.9495 15.3075 30.512 11.8225 30.512 7.825C30.512 3.8275 27.9495 0.342499 22.8245 0.342499C17.6995 0.342499 15.137 3.8275 15.137 7.825ZM26.617 7.825C26.617 10.121 25.305 11.8225 22.8245 11.8225C20.344 11.8225 19.032 10.121 19.032 7.825C19.032 5.529 20.344 3.8275 22.8245 3.8275C25.305 3.8275 26.617 5.529 26.617 7.825ZM36.2832 15V10.326H37.9232L41.3467 15H45.6312L41.6747 9.793C43.2532 9.1575 44.4217 7.866 44.4217 5.488C44.4217 1.6955 41.4492 0.649999 38.5382 0.649999H32.4907V15H36.2832ZM36.2832 3.93H38.7022C39.7887 3.93 40.5267 4.4835 40.5267 5.5905C40.5267 6.6975 39.7887 7.251 38.7022 7.251H36.2832V3.93ZM46.1072 7.825C46.1072 11.8225 48.6697 15.3075 53.7947 15.3075C58.9197 15.3075 61.4822 11.8225 61.4822 7.825C61.4822 3.8275 58.9197 0.342499 53.7947 0.342499C48.6697 0.342499 46.1072 3.8275 46.1072 7.825ZM57.5872 7.825C57.5872 10.121 56.2752 11.8225 53.7947 11.8225C51.3142 11.8225 50.0022 10.121 50.0022 7.825C50.0022 5.529 51.3142 3.8275 53.7947 3.8275C56.2752 3.8275 57.5872 5.529 57.5872 7.825ZM63.4609 0.649999V15H69.1804C74.3054 15 76.6834 12.007 76.6834 7.825C76.6834 3.643 74.3054 0.649999 69.1804 0.649999H63.4609ZM72.7884 7.825C72.7884 10.5105 71.4559 11.72 69.1804 11.72H67.2534V3.93H69.1804C71.4559 3.93 72.7884 5.1395 72.7884 7.825ZM77.9983 7.825C77.9983 11.8225 80.5608 15.3075 85.6858 15.3075C90.8108 15.3075 93.3733 11.8225 93.3733 7.825C93.3733 3.8275 90.8108 0.342499 85.6858 0.342499C80.5608 0.342499 77.9983 3.8275 77.9983 7.825ZM89.4783 7.825C89.4783 10.121 88.1663 11.8225 85.6858 11.8225C83.2053 11.8225 81.8933 10.121 81.8933 7.825C81.8933 5.529 83.2053 3.8275 85.6858 3.8275C88.1663 3.8275 89.4783 5.529 89.4783 7.825ZM99.1445 15V9.465H100.928L104.413 15H108.616L103.901 7.6405L108.411 0.649999H104.208L100.949 6.0825H99.1445V0.649999H95.352V15H99.1445ZM114.09 0.649999V15H119.81C124.935 15 127.313 12.007 127.313 7.825C127.313 3.643 124.935 0.649999 119.81 0.649999H114.09ZM123.418 7.825C123.418 10.5105 122.085 11.72 119.81 11.72H117.883V3.93H119.81C122.085 3.93 123.418 5.1395 123.418 7.825ZM129.345 0.649999V15H139.8V11.72H133.138V9.383H139.062V6.1235H133.138V3.93H139.677V0.649999H129.345ZM141.485 4.5655C141.485 9.6905 148.947 8.9935 148.947 11.064C148.947 11.7815 148.312 12.0275 146.815 12.0275C145.175 12.0275 143.289 11.5765 141.588 10.408V13.9955C143.105 14.836 145.032 15.3075 147.102 15.3075C150.239 15.3075 152.842 14.3235 152.842 10.9205C152.842 5.8365 145.38 6.4105 145.38 4.545C145.38 4.012 145.811 3.643 147.205 3.6225C148.865 3.602 150.485 4.053 151.715 4.9755V1.4905C150.464 0.773 148.681 0.342499 146.897 0.342499C143.945 0.342499 141.485 1.6955 141.485 4.5655ZM154.73 0.649999V15H158.522V0.649999H154.73ZM160.539 7.825C160.539 13.032 164.414 15.3075 168.493 15.3075C170.113 15.3075 171.773 14.959 173.249 14.344V7.1075H169.662V11.9455C169.416 12.007 169.088 12.048 168.678 12.048C167.038 12.048 164.434 11.3715 164.434 7.825C164.434 4.873 166.628 3.684 168.944 3.684C170.379 3.684 171.835 4.094 172.901 4.832V1.2445C171.548 0.670499 169.99 0.342499 168.452 0.342499C164.455 0.342499 160.539 2.4745 160.539 7.825ZM179.363 15V9.137C179.363 8.358 179.342 7.456 179.281 6.7795L184.898 15H188.485V0.649999H184.693V6.513C184.693 7.3125 184.713 8.2145 184.775 8.891L179.158 0.649999H175.57V15H179.363ZM50.3592 33.95V30.096C50.3592 27.349 48.6987 25.914 46.0747 25.914C44.4552 25.914 43.1022 26.3035 42.3232 26.57V28.169C43.1842 27.8 44.3937 27.431 45.9107 27.431C47.7147 27.431 48.7192 28.415 48.7192 29.891V30.2395C47.8992 30.055 46.8537 29.932 45.9927 29.932C43.8812 29.932 41.5442 30.711 41.5442 33.253C41.5442 35.3235 43.2662 36.246 45.0087 36.246C46.6077 36.246 47.8582 35.754 48.8422 34.934C49.1292 35.795 49.8467 36.123 50.6462 36.123C51.0562 36.123 51.4867 36.041 51.8762 35.8975V34.565C51.6302 34.647 51.3637 34.7085 51.1177 34.7085C50.6872 34.7085 50.3592 34.5445 50.3592 33.95ZM43.2252 33.171C43.2252 31.736 44.7832 31.3055 46.2182 31.3055C47.0177 31.3055 48.0222 31.449 48.7192 31.5925V33.3965C47.8582 34.319 46.6077 34.8315 45.3572 34.8315C44.2707 34.8315 43.2252 34.319 43.2252 33.171ZM55.1112 27.8V26.16H53.6352V40.51H55.2752V34.524C55.9927 35.3645 57.2022 36.246 59.0882 36.246C61.8967 36.246 64.0082 34.032 64.0082 31.08C64.0082 28.128 61.8967 25.914 59.0882 25.914C57.2022 25.914 55.9927 26.7955 55.1112 27.8ZM62.3682 31.08C62.3682 33.335 60.8102 34.729 58.9037 34.729C57.1407 34.729 55.8287 33.581 55.2752 32.31V29.85C55.8287 28.579 57.1407 27.431 58.9037 27.431C60.8102 27.431 62.3682 28.825 62.3682 31.08ZM70.1673 36V27.677H73.7753V26.16H64.8988V27.677H68.5273V36H70.1673ZM74.3906 30.137V31.695H81.7091V30.137H74.3906ZM83.8688 31.121C83.8688 34.6265 86.5543 36.246 89.1373 36.246C90.3673 36.246 91.4128 36.0205 92.3353 35.5695V33.9295C91.5153 34.4215 90.4288 34.729 89.3628 34.729C87.4358 34.729 85.5088 33.6015 85.5088 31.08C85.5088 28.497 87.4973 27.431 89.4038 27.431C90.4493 27.431 91.4948 27.7385 92.2328 28.3125V26.7135C91.3923 26.16 90.3058 25.914 89.1988 25.914C86.6363 25.914 83.8688 27.5335 83.8688 31.121ZM98.8353 36V27.677H102.443V26.16H93.5668V27.677H97.1953V36H98.8353ZM108.446 34.1345L104.735 26.16H102.993L107.667 36.0205L107.298 36.9225C106.662 38.5215 105.863 39.321 104.756 39.321C104.469 39.321 104.182 39.28 103.895 39.198V40.6125C104.264 40.715 104.612 40.756 104.961 40.756C106.396 40.756 107.646 39.854 108.671 37.476L113.509 26.16H111.767L108.446 34.1345ZM115.11 38.665V36H123.679V38.665H125.278V34.524H123.843V26.16H116.504C116.545 29.8295 116.053 32.351 114.823 34.524H113.511V38.665H115.11ZM118.082 27.636H122.203V34.524H116.606C117.508 32.638 118 30.588 118.082 27.636ZM128.861 36L134.888 28.8045V36H136.528V26.16H135.134L129.107 33.3555V26.16H127.467V36H128.861ZM140.543 36L143.228 32.556H145.996V36H147.636V26.16H142.798C140.399 26.16 139.108 27.636 139.108 29.358C139.108 30.7315 139.928 31.941 141.465 32.392L138.616 36H140.543ZM140.748 29.358C140.748 28.2715 141.568 27.636 142.941 27.636H145.996V31.08H142.941C141.568 31.08 140.748 30.4445 140.748 29.358Z" fill="white"/>
</svg>
