<svg id="Слой_1" data-name="Слой 1" xmlns="http://www.w3.org/2000/svg" viewBox="0 0 79.12 80.83">
  <defs>
    <style>
      .cls-1, .cls-2 {
        fill: none;
        stroke: #f7a511;
        stroke-width: 3px;
      }

      .cls-1 {
        stroke-linecap: round;
        stroke-linejoin: round;
      }

      .cls-2 {
        stroke-miterlimit: 10;
      }

      .cls-3 {
        fill: #f7a511;
      }
    </style>
  </defs>
  <title>opitraboty</title>
  <g>
    <polyline class="cls-1" points="60.29 16.5 72.63 14.17 49.38 37.42 45.29 33.33"/>
    <line class="cls-1" x1="70.62" y1="26.83" x2="72.62" y2="14.17"/>
    <rect class="cls-2" x="46.79" y="46.83" width="5.67" height="16.33"/>
    <rect class="cls-2" x="57.12" y="39" width="5.67" height="24.17"/>
    <rect class="cls-2" x="67.33" y="34.67" width="5.67" height="28.5"/>
    <rect class="cls-2" x="46.79" y="67.44" width="26.21" height="5.38"/>
    <line class="cls-2" x1="42.62" y1="67.44" x2="28.5" y2="67.44"/>
    <line class="cls-2" x1="28.5" y1="72.81" x2="37.75" y2="72.81"/>
    <line class="cls-2" x1="40.12" y1="72.81" x2="42.62" y2="72.81"/>
    <rect class="cls-2" x="7.75" y="46.83" width="32.38" height="5.29" rx="2.65"/>
    <path class="cls-1" d="M321.13,453.13s-1.5,11.12,10.87,11.12v16.08h53.5V410.25H350" transform="translate(-307.88 -401)"/>
    <path class="cls-1" d="M343.44,453.13s2.31,11.12-11.44,11.12" transform="translate(-307.88 -401)"/>
    <path class="cls-1" d="M353,432.41c.49-2.43,1.27-4.85,1.27-7.47a22.44,22.44,0,1,0-44.42,4.52s1.93,8.79,11.24,17.92h22.51S351.75,438.46,353,432.41Z" transform="translate(-307.88 -401)"/>
    <circle class="cls-1" cx="24.12" cy="15.5" r="6.62"/>
    <path class="cls-1" d="M319.25,413.25s-7.25,6.38-4.5,15.38" transform="translate(-307.88 -401)"/>
    <path class="cls-1" d="M341,427.88a12.13,12.13,0,0,0-9-4.74h-.19a12.15,12.15,0,0,0-9,4.74,8.07,8.07,0,0,0-1.71,5.05v7.9h21.67v-7.9A8.07,8.07,0,0,0,341,427.88Z" transform="translate(-307.88 -401)"/>
    <polygon class="cls-1" points="22.1 22.37 22.1 33.75 24.61 36.26 27.31 33.56 27.31 22.37 22.1 22.37"/>
    <circle class="cls-3" cx="8.81" cy="32.37" r="1.69"/>
    <circle class="cls-3" cx="38.94" cy="14.17" r="1.69"/>
    <circle class="cls-3" cx="40.94" cy="18.81" r="1.69"/>
    <circle class="cls-3" cx="42.31" cy="23.81" r="1.69"/>
  </g>
</svg>
