<svg id="Слой_1" data-name="Слой 1" xmlns="http://www.w3.org/2000/svg" viewBox="0 0 70.73 76.64">
  <defs>
    <style>
      .cls-1, .cls-2 {
        fill: none;
        stroke: #f7a511;
        stroke-width: 2px;
      }

      .cls-1 {
        stroke-miterlimit: 10;
      }

      .cls-2 {
        stroke-linecap: round;
        stroke-linejoin: round;
      }
    </style>
  </defs>
  <title>professionalizm</title>
  <g>
    <g>
      <path class="cls-1" d="M273.78,561.41h-11c-2,0-2-1.47-2-1.47V535.52s-.77-6.9,18.53-11l.58-.15,5.08,5.89-3.77,3-1.75,1.42-4.94-8.54" transform="translate(-259.75 -488.63)"/>
      <path class="cls-1" d="M304.21,529.32c-2.74-1.67-7-3.4-13.61-4.81l-.58-.15-5.08,5.89,3.77,3,1.76,1.42,4.94-8.54" transform="translate(-259.75 -488.63)"/>
      <path class="cls-1" d="M307.11,561.41H277.38" transform="translate(-259.75 -488.63)"/>
      <line class="cls-1" x1="9.76" y1="50.46" x2="9.76" y2="72.79"/>
      <path class="cls-1" d="M300.29,561.41" transform="translate(-259.75 -488.63)"/>
      <path class="cls-1" d="M300.29,539.09" transform="translate(-259.75 -488.63)"/>
      <polyline class="cls-1" points="21.18 44.87 23.04 47.09 19.38 66.8 25.19 72.79"/>
      <polyline class="cls-1" points="29.2 44.87 27.34 47.09 31.01 66.8 25.19 72.79"/>
      <line class="cls-1" x1="23.04" y1="47.09" x2="27.34" y2="47.09"/>
    </g>
    <path class="cls-1" d="M279.86,524.36v-4s-4.53-1.63-4.53-8.29v-6.36l-3.1.7s-2.72,6.28,2.63,6.82" transform="translate(-259.75 -488.63)"/>
    <path class="cls-1" d="M272.85,506.31v-7.46s.85-9.22,12.09-9.22" transform="translate(-259.75 -488.63)"/>
    <path class="cls-1" d="M290,524.36v-4s4.53-1.63,4.53-8.29v-6.36l3.11.7s2.71,6.28-2.64,6.82" transform="translate(-259.75 -488.63)"/>
    <path class="cls-1" d="M297,506.31v-7.46s-.86-9.22-12.1-9.22" transform="translate(-259.75 -488.63)"/>
    <path class="cls-1" d="M279.86,520.4a21.26,21.26,0,0,0,10.16,0" transform="translate(-259.75 -488.63)"/>
    <path class="cls-1" d="M275.33,505.75s.08-1.32,2.75-1.55c0,0,8.47.23,11.94-3.9,0,0,1.82.08,4.53,5.45" transform="translate(-259.75 -488.63)"/>
  </g>
  <g>
    <path class="cls-1" d="M319.1,528.64h8a2.4,2.4,0,0,1,2.4,2.4v30.83a2.41,2.41,0,0,1-2.4,2.4H311.47a2.52,2.52,0,0,1-1.87-.83l-5-5.45a2.48,2.48,0,0,1-.66-1.7V531a2.39,2.39,0,0,1,2.4-2.4h8.1" transform="translate(-259.75 -488.63)"/>
    <path class="cls-1" d="M304,557.27h4.56a1.56,1.56,0,0,1,1.56,1.56v5.44" transform="translate(-259.75 -488.63)"/>
    <line class="cls-1" x1="48.85" y1="45.64" x2="64.6" y2="45.64"/>
    <line class="cls-1" x1="48.85" y1="49.64" x2="64.6" y2="49.64"/>
    <path class="cls-2" d="M312.39,546.45l1.37,1.37a2.32,2.32,0,0,0,3.29,0l3.76-3.76,2.83,2.83L317,553.54a2.32,2.32,0,0,1-3.29,0l-4.34-4.34Z" transform="translate(-259.75 -488.63)"/>
  </g>
</svg>
