<svg width="30" height="31" viewBox="0 0 30 31" fill="none" xmlns="http://www.w3.org/2000/svg">
<rect width="30" height="31" rx="5" fill="#4D76A1"/>
<path fill-rule="evenodd" clip-rule="evenodd" d="M14.2745 21.9498H15.5297C15.5297 21.9498 15.9089 21.9081 16.1025 21.699C16.2806 21.5071 16.2749 21.1468 16.2749 21.1468C16.2749 21.1468 16.2504 19.4597 17.0321 19.2112C17.8027 18.9665 18.7923 20.8418 19.8411 21.5628C20.6343 22.1085 21.2369 21.9889 21.2369 21.9889L24.0414 21.9498C24.0414 21.9498 25.5084 21.8592 24.8128 20.7039C24.7558 20.6093 24.4077 19.8492 22.7277 18.2871C20.9692 16.6523 21.2047 16.9167 23.3229 14.0888C24.613 12.3666 25.1287 11.3152 24.9676 10.8648C24.8139 10.4359 23.8652 10.5493 23.8652 10.5493L20.7075 10.569C20.7075 10.569 20.4735 10.537 20.2998 10.641C20.1302 10.7429 20.021 10.9805 20.021 10.9805C20.021 10.9805 19.5213 12.3132 18.8547 13.4466C17.4487 15.8382 16.8865 15.9644 16.6567 15.8159C16.1221 15.4698 16.2556 14.4255 16.2556 13.6836C16.2556 11.366 16.6065 10.3997 15.5722 10.1495C15.229 10.0664 14.9764 10.0116 14.0986 10.0027C12.9719 9.99102 12.0183 10.0062 11.4783 10.2712C11.1191 10.4473 10.842 10.84 11.0108 10.8626C11.2195 10.8905 11.6921 10.9902 11.9427 11.332C12.2663 11.7729 12.2549 12.7632 12.2549 12.7632C12.2549 12.7632 12.4408 15.4915 11.8207 15.8305C11.3951 16.0629 10.8112 15.5883 9.55767 13.4186C8.91536 12.3072 8.43042 11.0787 8.43042 11.0787C8.43042 11.0787 8.33692 10.8491 8.17014 10.7263C7.96772 10.5776 7.68492 10.5302 7.68492 10.5302L4.68435 10.5499C4.68435 10.5499 4.23391 10.5624 4.06855 10.7586C3.92145 10.9331 4.05687 11.294 4.05687 11.294C4.05687 11.294 6.406 16.7991 9.06589 19.5733C11.5048 22.1168 14.2745 21.9498 14.2745 21.9498Z" fill="white"/>
</svg>
